<svg version="1.1" id="Layer_1" xmlns="http://www.w3.org/2000/svg" xmlns:xlink="http://www.w3.org/1999/xlink" x="0px" y="0px" viewBox="0 0 60 60" enable-background="new 0 0 60 60" xml:space="preserve">
<path fill-rule="evenodd" clip-rule="evenodd" fill="#121212" d="M41.5,38.1c0.8-0.7,1.6-3.4,1.6-3.4l16.9-2.1l-0.2,2
	c-0.1,2.4-1.6,3.5-2.3,3.5C56.8,38,41.5,38.1,41.5,38.1z M59,31.6l-15.7,2l0.4-3.7c0,0,14.9-5.3,15.1-5.4c0.2-0.1,0.8-0.5,0.8-0.5
	c0.5,1.8,0.4,6,0.3,6.8C59.8,31.5,59,31.6,59,31.6z M57.6,23.7c-1,0.4-14,5.2-14,5.2L43,26.5l13-11.9c0,0,0.1,0.6,0.1,0.8
	c0,0.2,2.7,5,2.6,6.1C58.7,22.6,58.6,23.3,57.6,23.7z M42.5,25.4l-1.6-2.8c0,0,8.7-13.6,8.8-14.1c0.2-0.5,0.2-1,0.2-1
	c1.8,1.5,4.4,4.7,4.8,5.5c0.4,0.8-0.1,1.4-0.1,1.4L42.5,25.4z M39.9,21.6c-0.3-0.3-2.1-2.1-2.1-2.1s4.8-14.7,5-15.4
	c0.2-0.7-0.2-1.4-0.2-1.4c2.5,1.1,4.7,2.6,5.7,3.6c0.9,1,0.3,1.7,0.3,1.7L39.9,21.6z M37,18.9l-1.7-0.7V0c0,0,3.5,0.7,6.1,2.3
	c0,0,0.5,0.3,0.3,0.8C41.7,3.6,37,18.9,37,18.9z M35.7,48.3c0,0.2-0.2,0.4-0.4,0.4c-0.2,0-0.4-0.2-0.4-0.4c0-0.2,0.2-0.4,0.4-0.4
	C35.5,48,35.7,48.1,35.7,48.3z M31.9,45.4l3-2.1l0.1,3.8h-3.2L31.9,45.4z M32,39l2.3-0.1v3.8L32,44.5V39z M26,33.5l8.3-0.1v4.5H26
	V33.5z M29.2,28.5c0-1-0.5-1.3-1-1.3c-0.4,0-1.2,0.7-1.2,0.7s0.1-1,0.4-1.3c0.3-0.4,1.3-0.5,1.7-0.6c0.4-0.2,0.9-0.5,0.9-0.5l3.5,0
	L33,26c0,0,0.1,0,0.4,1c0.3,1-0.5,2.4-0.5,2.9c-0.1,0.5,0,1,0.6,1.4c0.5,0.4,0.7,1.3,0.7,1.3h-8.1C28.5,31.4,29.1,29.5,29.2,28.5z
	 M28.3,39v5.5L26,42.7v-3.8L28.3,39z M28.5,47.2h-3.2l0.1-3.8l3,2.1L28.5,47.2z M24.9,48.7c-0.2,0-0.4-0.2-0.4-0.4
	c0-0.2,0.2-0.4,0.4-0.4s0.4,0.2,0.4,0.4C25.3,48.5,25.1,48.7,24.9,48.7z M18.2,3.1c-0.1-0.5,0.3-0.8,0.3-0.8C21.2,0.7,24.7,0,24.7,0
	v18.2L23,18.9C23,18.9,18.3,3.6,18.2,3.1z M17.2,4c0.2,0.7,5,15.4,5,15.4s-1.9,1.8-2.1,2.1L11.5,7.9c0,0-0.6-0.7,0.3-1.7
	c0.9-1,3.2-2.4,5.7-3.6C17.4,2.6,17,3.3,17.2,4z M17.5,25.4L5.3,14.5c0,0-0.5-0.6-0.1-1.4c0.4-0.8,3.1-4,4.8-5.5c0,0,0,0.5,0.2,1
	c0.2,0.5,8.8,14.1,8.8,14.1L17.5,25.4z M16.4,28.8c0,0-13-4.8-14-5.2c-1-0.4-1.1-1-1.1-2.2c0-1.1,2.6-5.9,2.6-6.1
	c0-0.2,0.1-0.8,0.1-0.8l13,11.9L16.4,28.8z M16.7,33.7L1,31.6c0,0-0.8-0.2-0.9-0.9c-0.1-0.7-0.2-4.9,0.3-6.8c0,0,0.6,0.5,0.8,0.5
	C1.4,24.6,16.3,30,16.3,30L16.7,33.7z M18.6,38.1c0,0-15.4,0-16.1,0c-0.7,0-2.2-1.1-2.3-3.5l-0.2-2L17,34.7
	C17,34.7,17.8,37.4,18.6,38.1z M17.2,30.9c0-8.2,7.5-11.3,7.5-11.3v22.6C24.6,42.3,17.2,39.1,17.2,30.9z M6.1,44.8
	c0,0,4.3,0,4.8-0.1c0,0-0.9,0.5-1,0.8l11.3,2.9l0.9,0l-0.3-0.4l-7.3-3.5c0,0-0.6-0.1-0.5,1l-2.8-3.1l4.4,0.7c0,0-0.7,0.4-0.7,0.9
	c0,0.5,8.4,4.2,8.4,4.2s0.3,0.3,0.5,0.4c0.2,0.1,0.6,0.1,0.6,0.1s-0.1,0.4-0.2,0.8c-0.1,0.5-0.1,0.9,0.3,1.2c0.3,0.3,1.4,0.6,3,0.4
	l-2.7,6.4c0,0-0.6,1.1-1.2,1.5c0,0-3.8-0.5-5-1.8c0,0,0.7-0.5,1-1.1s3.1-5.1,3.2-5.4c0.1-0.2,0.1-0.4-0.2-0.3
	c-0.3,0.1-6.1,1.9-6.1,1.9l-0.4,0.1c0,0,0.1,0.8,0.8,1.1l-5.5-0.3l4.2-2.9c0,0-0.2,1.1,0.1,1.5l7.2-2.3c0,0-0.5-0.3-0.8-0.3
	c-0.4,0-9.7-0.1-9.7-0.1s0.1,1.1,0.4,1.4c0,0-3.3-1.4-4.8-1.5c0,0,3.2-0.6,4.8-1.5c0,0-0.3,0.7-0.3,1.2l8.7,0l-0.3-0.2L9.8,46
	c0,0-0.1,0.7,0.1,1.1C9.9,47,7.5,45,6.1,44.8z M12,42.9l2.4,1l0.5-0.5L12,42.9z M15.2,51.4l-2.5,1.7l2.6-0.8
	C15.1,52,15.2,51.4,15.2,51.4z M9.8,49l2.1-0.1l0.3-0.7C12.3,48.3,10.3,48.9,9.8,49z M9.9,44.9C9.5,45,7.1,45,7.1,45l2.5,0.3
	L9.9,44.9z M28.9,50.4h2.4l2.3,5.4c0,0,1.3,3.2,1.9,3.6c0,0-2.7,0.6-5.1,0.6c-2.4,0-5.5-0.6-5.5-0.6s1.2-1.8,1.9-3.6
	C27.6,53.8,28.9,50.4,28.9,50.4z M26.1,48.3c0-0.2,0.2-0.4,0.4-0.4c0.2,0,0.4,0.2,0.4,0.4c0,0.2-0.2,0.4-0.4,0.4
	C26.3,48.7,26.1,48.5,26.1,48.3z M28.4,49.9c0,0.5-0.8,0.9-1.9,0.9c-1,0-1.9-0.4-1.9-0.9c0-0.5,0.8-0.9,1.9-0.9
	C27.6,49,28.4,49.4,28.4,49.9z M31.1,45.4l0,2.6h1.5l-0.3,0.9c-0.3,0.1-0.9,0.5-0.9,0.5l-2.7,0c-0.1-0.3-0.8-0.7-0.8-0.7L27.6,48
	h1.7v-2.6H31.1z M33.3,48.3c0-0.2,0.2-0.4,0.4-0.4c0.2,0,0.4,0.2,0.4,0.4c0,0.2-0.2,0.4-0.4,0.4C33.5,48.7,33.3,48.5,33.3,48.3z
	 M35.6,49.9c0,0.5-0.8,0.9-1.9,0.9c-1,0-1.9-0.4-1.9-0.9c0-0.5,0.8-0.9,1.9-0.9C34.7,49,35.6,49.4,35.6,49.9z M35.4,19.6
	c0,0,7.5,3.1,7.5,11.3c0,8.2-7.5,11.3-7.5,11.3V19.6z M32.8,51.3c1.5,0.2,2.7-0.1,3-0.4c0.3-0.3,0.4-0.8,0.3-1.2
	c-0.1-0.5-0.2-0.8-0.2-0.8s0.4-0.1,0.6-0.1c0.2-0.1,0.5-0.4,0.5-0.4s8.3-3.7,8.4-4.2c0-0.5-0.7-0.9-0.7-0.9l4.4-0.7l-2.8,3.1
	c0.1-1.1-0.5-1-0.5-1l-7.3,3.5l-0.3,0.4l0.9,0l11.3-2.9c-0.2-0.3-1-0.8-1-0.8c0.5,0.1,4.8,0.1,4.8,0.1C52.7,45,50.3,47,50.3,47
	c0.2-0.3,0.1-1.1,0.1-1.1l-11.1,2.7L39.1,49l8.7,0c0-0.5-0.3-1.2-0.3-1.2c1.6,0.8,4.8,1.5,4.8,1.5c-1.6,0.2-4.8,1.5-4.8,1.5
	c0.3-0.3,0.4-1.4,0.4-1.4s-9.3,0-9.7,0.1c-0.4,0-0.8,0.3-0.8,0.3l7.2,2.3c0.2-0.5,0.1-1.5,0.1-1.5l4.2,2.9l-5.5,0.3
	c0.7-0.3,0.8-1.1,0.8-1.1l-0.4-0.1c0,0-5.8-1.8-6.1-1.9c-0.3-0.1-0.3,0.1-0.2,0.3c0.1,0.2,2.9,4.8,3.2,5.4c0.3,0.6,1,1.1,1,1.1
	c-1.2,1.3-5,1.8-5,1.8c-0.6-0.3-1.2-1.5-1.2-1.5L32.8,51.3z M45.8,43.9l2.4-1l-2.8,0.5L45.8,43.9z M50.6,45.2l2.5-0.3
	c0,0-2.4,0-2.8-0.1L50.6,45.2z M48.3,49l2.1,0.1c-0.5-0.1-2.5-0.7-2.5-0.7L48.3,49z M47.6,53.1L45,51.4c0,0,0.1,0.6,0,0.8L47.6,53.1
	z"></path>
</svg>